<svg id="visual" viewBox="0 0 900 600" width="900" height="600" xmlns="http://www.w3.org/2000/svg" xmlns:xlink="http://www.w3.org/1999/xlink" version="1.1"><path d="M0 115L82 115L82 61L164 61L164 43L245 43L245 97L327 97L327 85L409 85L409 121L491 121L491 43L573 43L573 67L655 67L655 61L736 61L736 103L818 103L818 115L900 115L900 61L900 0L900 0L818 0L818 0L736 0L736 0L655 0L655 0L573 0L573 0L491 0L491 0L409 0L409 0L327 0L327 0L245 0L245 0L164 0L164 0L82 0L82 0L0 0Z" fill="#6fecec"></path><path d="M0 163L82 163L82 97L164 97L164 91L245 91L245 133L327 133L327 187L409 187L409 217L491 217L491 115L573 115L573 121L655 121L655 157L736 157L736 193L818 193L818 193L900 193L900 157L900 59L900 113L818 113L818 101L736 101L736 59L655 59L655 65L573 65L573 41L491 41L491 119L409 119L409 83L327 83L327 95L245 95L245 41L164 41L164 59L82 59L82 113L0 113Z" fill="#00caf6"></path><path d="M0 409L82 409L82 301L164 301L164 307L245 307L245 271L327 271L327 403L409 403L409 337L491 337L491 367L573 367L573 271L655 271L655 301L736 301L736 283L818 283L818 409L900 409L900 403L900 155L900 191L818 191L818 191L736 191L736 155L655 155L655 119L573 119L573 113L491 113L491 215L409 215L409 185L327 185L327 131L245 131L245 89L164 89L164 95L82 95L82 161L0 161Z" fill="#00a2f4"></path><path d="M0 463L82 463L82 451L164 451L164 397L245 397L245 367L327 367L327 457L409 457L409 469L491 469L491 457L573 457L573 439L655 439L655 397L736 397L736 367L818 367L818 469L900 469L900 493L900 401L900 407L818 407L818 281L736 281L736 299L655 299L655 269L573 269L573 365L491 365L491 335L409 335L409 401L327 401L327 269L245 269L245 305L164 305L164 299L82 299L82 407L0 407Z" fill="#0075e6"></path><path d="M0 601L82 601L82 601L164 601L164 601L245 601L245 601L327 601L327 601L409 601L409 601L491 601L491 601L573 601L573 601L655 601L655 601L736 601L736 601L818 601L818 601L900 601L900 601L900 491L900 467L818 467L818 365L736 365L736 395L655 395L655 437L573 437L573 455L491 455L491 467L409 467L409 455L327 455L327 365L245 365L245 395L164 395L164 449L82 449L82 461L0 461Z" fill="#2140c9"></path></svg>